<svg width="20" height="20" viewBox="0 0 20 20" fill="none" xmlns="http://www.w3.org/2000/svg">
<g clip-path="url(#clip0_2024_267)">
<path d="M19.5975 10.2256C19.5975 9.51673 19.5335 8.83582 19.4156 8.18091H9.99878V12.0484H15.3801C15.2687 12.6602 15.0344 13.243 14.6914 13.7617C14.3483 14.2803 13.9037 14.7241 13.3843 15.066V17.5757H16.6159C18.5067 15.8339 19.5975 13.2702 19.5975 10.2256Z" fill="#4285F4"/>
<path d="M9.9988 19.9974C12.6985 19.9974 14.9622 19.1025 16.6159 17.5747L13.3844 15.066C12.4895 15.6659 11.3446 16.0209 9.9988 16.0209C7.39414 16.0209 5.18943 14.2611 4.40453 11.8984H1.06396V14.4881C1.89587 16.1446 3.17206 17.5372 4.74992 18.5101C6.32777 19.483 8.14511 19.998 9.9988 19.9974Z" fill="#34A853"/>
<path d="M4.40443 11.8984C4.20445 11.2985 4.09047 10.6586 4.09047 9.99869C4.09047 9.33878 4.20445 8.69886 4.40443 8.09894V5.50928H1.06386C0.363967 6.9023 -0.000359386 8.43973 2.6602e-07 9.99869C2.6602e-07 11.6125 0.38595 13.1383 1.06386 14.4881L4.40343 11.8984H4.40443Z" fill="#FBBC05"/>
<path d="M9.9988 3.97648C11.4666 3.97648 12.7844 4.48142 13.8213 5.47229L16.6889 2.60466C14.9572 0.989871 12.6935 0 9.9988 0C6.08931 0 2.70975 2.23971 1.06396 5.50928L4.40353 8.09895C5.18943 5.73525 7.39414 3.97648 9.9988 3.97648Z" fill="#EA4335"/>
</g>
<defs>
<clipPath id="clip0_2024_267">
<rect width="19.9974" height="19.9974" fill="white"/>
</clipPath>
</defs>
</svg>
