<svg width="69" height="59" viewBox="0 0 69 59" fill="none" xmlns="http://www.w3.org/2000/svg">
<mask id="mask0_35_97" style="mask-type:luminance" maskUnits="userSpaceOnUse" x="0" y="0" width="69" height="59">
<path d="M18.925 0.0427542C8.54693 0.0191439 0.114266 8.41352 0.0906558 18.7916C0.0479046 37.5832 22.2173 54.7171 34.1666 58.7178C46.1339 54.7715 68.3811 37.7387 68.4238 18.9471C68.4474 8.56898 60.053 0.136321 49.6749 0.112711C43.32 0.098253 37.6924 3.24075 34.2818 8.06246C32.5543 5.59064 30.2569 3.57132 27.5838 2.17537C24.9107 0.779416 21.9407 0.0479109 18.925 0.0427542Z" fill="white"/>
<path d="M23.9841 29.096L44.4841 29.1426M34.2574 18.8693L34.2108 39.3693" stroke="black" stroke-width="6" stroke-linecap="round" stroke-linejoin="round"/>
</mask>
<g mask="url(#mask0_35_97)">
<path d="M-6.67275 -11.9738L75.327 -11.7873L75.1405 70.2125L-6.8593 70.026L-6.67275 -11.9738Z" fill="#E26767"/>
</g>
</svg>
